<?xml version="1.0" encoding="utf-8"?>
<svg version="1.1" width="637px" height="600px" style="shape-rendering:geometricPrecision; text-rendering:geometricPrecision; image-rendering:optimizeQuality; fill-rule:evenodd; clip-rule:evenodd" xmlns="http://www.w3.org/2000/svg">
  <defs/>
  <g transform="matrix(1, 0, 0, 1, 937.236572, 4.215456)">
    <path style="opacity:1" fill="#fefefe" d="M -0.5,-0.5 C 211.833,-0.5 424.167,-0.5 636.5,-0.5C 636.5,199.5 636.5,399.5 636.5,599.5C 424.167,599.5 211.833,599.5 -0.5,599.5C -0.5,399.5 -0.5,199.5 -0.5,-0.5 Z"/>
  </g>
  <g>
    <path style="opacity: 1; fill: rgb(255, 255, 255);" d="M 338.5,56.5 C 338.44,55.9569 338.107,55.6236 337.5,55.5C 336.5,195.498 336.167,335.498 336.5,475.5C 335.605,481.385 332.105,484.385 326,484.5C 320.936,484.055 317.769,481.389 316.5,476.5C 317.167,337.098 317.834,197.598 318.5,58C 317.934,57.0053 317.267,56.172 316.5,55.5C 315.508,55.3284 314.842,55.6618 314.5,56.5C 271.701,99.7987 228.701,142.965 185.5,186C 178.745,190.183 173.245,189.017 169,182.5C 168.163,178.705 168.496,175.039 170,171.5C 219.833,121.667 269.667,71.8333 319.5,22C 324.236,18.744 328.902,18.744 333.5,22C 383.333,71.8333 433.167,121.667 483,171.5C 487.033,180.768 484.199,186.435 474.5,188.5C 471.972,188.237 469.639,187.404 467.5,186C 424.299,142.965 381.299,99.7987 338.5,56.5 Z"/>
  </g>
  <g>
    <path style="opacity: 1; fill: rgb(255, 255, 255);" d="M 316.5,55.5 C 317.267,56.172 317.934,57.0053 318.5,58C 317.834,197.598 317.167,337.098 316.5,476.5C 316.5,336.167 316.5,195.833 316.5,55.5 Z"/>
  </g>
  <g>
    <path style="opacity: 1; fill: rgb(255, 255, 255);" d="M 314.5,56.5 C 314.842,55.6618 315.508,55.3284 316.5,55.5C 316.5,195.833 316.5,336.167 316.5,476.5C 315.833,336.5 315.167,196.5 314.5,56.5 Z"/>
  </g>
  <g>
    <path style="opacity: 1; fill: rgb(255, 255, 255);" d="M 338.5,56.5 C 337.833,196.167 337.167,335.833 336.5,475.5C 336.167,335.498 336.5,195.498 337.5,55.5C 338.107,55.6236 338.44,55.9569 338.5,56.5 Z"/>
  </g>
  <g>
    <path style="opacity: 1; fill: rgb(255, 255, 255);" d="M 30.5,436.5 C 37.1659,435.251 41.9993,437.584 45,443.5C 45.3333,481.833 45.6667,520.167 46,558.5C 47.1667,561 49,562.833 51.5,564C 234.5,564.667 417.5,564.667 600.5,564C 604.027,563.14 606.193,560.973 607,557.5C 607.333,519.5 607.667,481.5 608,443.5C 610.827,436.955 615.661,434.788 622.5,437C 625,438.167 626.833,440 628,442.5C 628.667,487.833 628.667,533.167 628,578.5C 626.5,581.333 624.333,583.5 621.5,585C 424.833,585.667 228.167,585.667 31.5,585C 28.6667,583.5 26.5,581.333 25,578.5C 24.3333,533.167 24.3333,487.833 25,442.5C 26.3597,439.977 28.193,437.977 30.5,436.5 Z"/>
  </g>
  <g>
    <path style="opacity: 1; fill: rgb(255, 255, 255);" d="M 54.5,565.5 C 236.167,565.333 417.834,565.5 599.5,566C 417.931,566.167 236.431,566.667 55,567.5C 54.5357,566.906 54.369,566.239 54.5,565.5 Z"/>
  </g>
</svg>